<svg width="152" height="91" viewBox="0 0 152 91" fill="none" xmlns="http://www.w3.org/2000/svg">
<path d="M10.1528 47.518C7.42467 47.518 5.3354 46.741 3.885 45.187C2.46913 43.633 1.7612 41.4401 1.7612 38.6084V19.1316C1.7612 16.2999 2.46913 14.107 3.885 12.553C5.3354 10.999 7.42467 10.222 10.1528 10.222C12.8809 10.222 14.9529 10.999 16.3688 12.553C17.8192 14.107 18.5444 16.2999 18.5444 19.1316V22.9648H13.1572V18.769C13.1572 16.5243 12.2075 15.402 10.3082 15.402C8.40887 15.402 7.4592 16.5243 7.4592 18.769V39.0228C7.4592 41.2329 8.40887 42.338 10.3082 42.338C12.2075 42.338 13.1572 41.2329 13.1572 39.0228V33.4802H18.5444V38.6084C18.5444 41.4401 17.8192 43.633 16.3688 45.187C14.9529 46.741 12.8809 47.518 10.1528 47.518ZM30.2909 47.518C27.4937 47.518 25.3526 46.7237 23.8677 45.1352C22.3827 43.5467 21.6403 41.302 21.6403 38.4012V19.3388C21.6403 16.438 22.3827 14.1933 23.8677 12.6048C25.3526 11.0163 27.4937 10.222 30.2909 10.222C33.0881 10.222 35.2291 11.0163 36.7141 12.6048C38.199 14.1933 38.9415 16.438 38.9415 19.3388V38.4012C38.9415 41.302 38.199 43.5467 36.7141 45.1352C35.2291 46.7237 33.0881 47.518 30.2909 47.518ZM30.2909 42.338C32.2593 42.338 33.2435 41.1466 33.2435 38.7638V18.9762C33.2435 16.5934 32.2593 15.402 30.2909 15.402C28.3225 15.402 27.3383 16.5934 27.3383 18.9762V38.7638C27.3383 41.1466 28.3225 42.338 30.2909 42.338ZM42.7949 10.74H48.4929V41.82H57.8687V47H42.7949V10.74ZM60.6011 10.74H66.2991V41.82H75.6749V47H60.6011V10.74ZM78.4074 10.74H93.9474V15.92H84.1054V25.503H91.9272V30.683H84.1054V41.82H93.9474V47H78.4074V10.74ZM101.68 15.92H95.7232V10.74H113.335V15.92H107.378V47H101.68V15.92ZM124.128 47.518C121.331 47.518 119.19 46.7237 117.705 45.1352C116.22 43.5467 115.477 41.302 115.477 38.4012V19.3388C115.477 16.438 116.22 14.1933 117.705 12.6048C119.19 11.0163 121.331 10.222 124.128 10.222C126.925 10.222 129.066 11.0163 130.551 12.6048C132.036 14.1933 132.778 16.438 132.778 19.3388V38.4012C132.778 41.302 132.036 43.5467 130.551 45.1352C129.066 46.7237 126.925 47.518 124.128 47.518ZM124.128 42.338C126.096 42.338 127.08 41.1466 127.08 38.7638V18.9762C127.08 16.5934 126.096 15.402 124.128 15.402C122.159 15.402 121.175 16.5934 121.175 18.9762V38.7638C121.175 41.1466 122.159 42.338 124.128 42.338Z" fill="black"/>
<path d="M72.7054 52.0719C73.2734 54.8048 72.6159 57.3352 70.7329 59.6632C68.8703 61.9599 66.1858 63.4727 62.6795 64.2015C60.7458 64.6034 59.2172 64.6253 58.0938 64.2671C57.98 64.2369 57.8586 64.2353 57.7297 64.2621C57.6008 64.2889 57.1533 64.5298 56.3872 64.9849C55.6211 65.44 54.8127 65.7559 53.9619 65.9328C53.1368 66.1043 52.6734 65.9451 52.5716 65.4552C52.4322 64.7849 52.8827 62.8758 53.9228 59.7279C54.9576 56.5542 56.0049 54.3462 57.0646 53.1039C57.5203 52.5789 58.0059 52.2628 58.5216 52.1556C59.0372 52.0484 59.3245 52.1366 59.3835 52.4202C59.3942 52.4718 59.2807 52.8316 59.043 53.4996C58.8257 54.1365 58.6358 54.9694 58.4731 55.9984C58.3362 57.022 58.3401 57.8818 58.4848 58.578C58.6241 59.2483 58.8065 59.8021 59.0318 60.2394C59.283 60.6713 59.7431 61.0733 60.4121 61.4452C61.1016 61.7861 61.8588 61.8707 62.6838 61.6993C63.5346 61.5224 64.2996 61.2558 64.9786 60.8995C65.6834 60.5379 66.3512 60.0629 66.982 59.4745C67.6128 58.8862 68.0719 58.1184 68.3591 57.1711C68.6463 56.2238 68.6747 55.1958 68.4443 54.0872C68.2085 52.9528 67.622 51.8778 66.6847 50.8623C65.7474 49.8468 64.7832 49.0252 63.7921 48.3974C62.7956 47.7438 61.8421 46.9738 60.9316 46.0872C60.0157 45.1748 59.456 44.2287 59.2524 43.249C59.0434 42.2435 59.1083 41.2617 59.4471 40.3037C59.8117 39.3404 60.3298 38.5334 61.0014 37.8828C61.6935 37.201 62.5075 36.588 63.4433 36.0439C65.027 35.123 66.4764 34.5259 67.7913 34.2526C69.1062 33.9793 70.0864 33.8427 70.732 33.843C71.398 33.8122 71.8964 33.8162 72.2272 33.855C72.5838 33.8885 72.8008 33.8972 72.8781 33.8811C72.9555 33.865 73.0505 33.8049 73.1634 33.7008C73.8458 33.1017 74.6381 32.7084 75.5405 32.5208C76.4429 32.3333 76.9396 32.4586 77.0307 32.8969C77.1808 33.6188 76.6547 35.4227 75.4524 38.3084C74.2706 41.1629 73.2543 42.6786 72.4035 42.8555C71.7074 43.0002 71.3271 42.9178 71.2628 42.6084C71.2521 42.5569 71.3048 42.3576 71.421 42.0107C71.7739 40.8615 71.8136 39.6295 71.5403 38.3146C71.3903 37.5927 70.9657 37.1027 70.2665 36.8446C69.562 36.5607 68.8746 36.4884 68.2042 36.6277C67.5597 36.7617 66.9108 37.0041 66.2575 37.3551C65.6301 37.7007 65.0326 38.2552 64.4651 39.0187C63.9233 39.7768 63.7436 40.5941 63.9258 41.4707C64.1026 42.3215 64.6125 43.1569 65.4553 43.9769C66.3186 44.7657 67.22 45.4794 68.1596 46.1179C69.1196 46.7252 70.0478 47.5678 70.9442 48.6456C71.8611 49.6923 72.4481 50.8344 72.7054 52.0719ZM77.7193 61.963C76.5591 62.2042 75.9129 62.4595 75.7806 62.7291C75.1398 64.0457 73.9995 67.6178 72.3598 73.4455C70.6943 79.2785 69.7101 83.3426 69.4072 85.638C69.3684 85.9688 69.1556 86.1744 68.7689 86.2548C68.3822 86.3352 67.872 86.1453 67.2385 85.6853C66.605 85.2253 66.2212 84.673 66.0872 84.0284C65.8997 83.126 66.6181 80.1123 68.2424 74.9871C69.8721 69.8878 71.8314 63.9803 74.1203 57.2646C76.435 50.5436 77.771 46.5542 78.1282 45.2966C78.5058 44.0078 78.7022 43.3349 78.7172 43.278C78.7269 43.1953 78.7904 43.0476 78.9076 42.835C79.0194 42.5965 79.165 42.3915 79.3445 42.2197C79.8571 41.7097 80.6033 41.3529 81.583 41.1492C82.1244 41.0367 82.43 41.148 82.4996 41.4832C82.5318 41.6379 82.2994 42.3317 81.8026 43.5646C81.3316 44.7921 81.1228 45.5348 81.1764 45.7926C81.23 46.0505 81.347 46.1606 81.5275 46.1231C81.708 46.0856 82.011 45.8612 82.4366 45.45C83.7595 44.1799 85.0654 43.4109 86.3546 43.1429C86.8702 43.0357 87.3772 43.1455 87.8754 43.4723C88.3737 43.7991 88.7219 44.4395 88.9202 45.3934C89.3543 47.4818 89.1723 49.7116 88.3741 52.083C87.5707 54.4286 86.2077 56.5408 84.2851 58.4197C82.383 60.2675 80.1944 61.4486 77.7193 61.963ZM85.2775 48.2484C85.2025 47.8875 85.0662 47.62 84.8686 47.4459C84.6657 47.246 84.4482 47.1701 84.2162 47.2184C83.288 47.4113 82.3607 48.0613 81.4343 49.1683C80.5078 50.2753 79.7473 51.4689 79.1527 52.749C78.5839 54.0238 78.1123 55.1842 77.7381 56.2303C77.3895 57.271 77.2421 57.9202 77.2957 58.178C77.3493 58.4359 77.5833 58.6562 77.9979 58.839C78.4382 59.0164 78.9162 59.0515 79.4318 58.9444C81.0561 58.6068 82.5144 57.1471 83.8067 54.5654C85.1249 51.9784 85.6151 49.8727 85.2775 48.2484ZM92.545 57.9132C91.893 57.7529 91.2987 57.352 90.7619 56.7104C90.2509 56.0636 89.8855 55.2116 89.6658 54.1545C89.3228 52.5044 89.4923 50.6672 90.1743 48.6427C90.882 46.6129 92.0687 44.7524 93.7345 43.0614C95.426 41.365 97.3546 40.2917 99.5203 39.8416C100.526 39.6326 101.42 39.7291 102.203 40.1312C102.986 40.5333 103.433 41.0051 103.546 41.5465C103.653 42.0622 103.662 42.4908 103.571 42.8323C103.481 43.1739 103.446 43.3962 103.468 43.4993C103.532 43.8087 103.809 43.9125 104.299 43.8107C104.789 43.7089 105.149 43.5667 105.38 43.3842C105.611 43.2017 105.753 43.1051 105.804 43.0944C106.011 43.0515 106.17 43.3008 106.282 43.8422C106.39 44.3578 106.26 45.0302 105.895 45.8593C105.524 46.6626 104.999 47.3095 104.321 47.8001C104.261 48.0278 104.181 48.3538 104.081 48.778C103.975 49.1765 103.684 49.9095 103.207 50.977C102.724 52.0187 102.171 52.9809 101.547 53.8635C100.944 54.7151 100.07 55.5557 98.9246 56.3855C97.8103 57.2357 96.7375 57.768 95.7062 57.9824C94.6749 58.1967 93.6211 58.1737 92.545 57.9132ZM99.7865 49.4689C99.7437 49.2626 99.6062 49.1836 99.3742 49.2318C99.039 49.3015 98.6684 49.4592 98.2622 49.705C97.8818 49.9455 97.6659 50.071 97.6143 50.0817C97.4596 50.1139 97.3582 50.014 97.3099 49.7819C97.1009 48.7764 97.2824 47.8377 97.8542 46.9657C98.0735 46.5974 98.4324 46.2538 98.931 45.935C99.4242 45.5904 99.7831 45.2469 100.008 44.9043C100.253 44.5306 100.3 43.9828 100.15 43.2609C99.9681 42.3843 99.413 42.0425 98.4848 42.2354C96.8347 42.5784 95.5058 44.0784 94.4981 46.7354C93.485 49.3666 93.1687 51.5975 93.5492 53.428C93.6778 54.0468 93.994 54.5325 94.4976 54.885C95.027 55.2322 95.5882 55.3442 96.1812 55.2209C97.5218 54.9423 98.5024 54.1602 99.1228 52.8747C99.7636 51.5581 99.9848 50.4228 99.7865 49.4689ZM118.444 46.8819C117.954 46.9838 117.529 46.8165 117.17 46.3803C116.805 45.9182 116.574 45.4551 116.477 44.991C116.376 44.5012 116.415 43.9147 116.596 43.2316C116.526 42.8965 116.362 42.7557 116.105 42.8093C115.099 43.0183 114.078 43.8626 113.04 45.3423C111.998 46.7962 111.172 48.2589 110.564 49.7302C109.95 51.1757 109.416 52.6181 108.962 54.0572C108.684 54.9218 107.862 55.4961 106.496 55.7801C105.8 55.9248 105.419 55.8425 105.355 55.5331C105.21 54.837 105.935 51.9832 107.529 46.972C109.144 41.9295 110.332 39.1679 111.092 38.687C111.601 38.2855 112.203 38.0124 112.899 37.8677C113.621 37.7177 114.014 37.7973 114.078 38.1067C114.137 38.3903 113.959 39.0192 113.542 39.9932C113.126 40.9673 112.942 41.5704 112.991 41.8024C113.039 42.0344 113.153 42.1317 113.334 42.0942C113.437 42.0728 113.688 41.8591 114.088 41.4533C115.046 40.3667 116.256 39.2007 117.718 37.9553L117.97 37.4189C118.428 36.5168 119.237 35.9452 120.397 35.7041C121.583 35.4576 122.224 35.5663 122.321 36.0304C122.296 36.1701 122.21 36.4031 122.063 36.7296C120.605 39.9374 119.496 43.2072 118.736 46.5389C118.67 46.7408 118.573 46.8551 118.444 46.8819ZM135.609 22.658L137.488 22.1868C137.745 22.1332 137.885 22.1579 137.906 22.2611C137.928 22.3642 137.929 22.4985 137.909 22.6639C137.89 22.8293 137.814 23.0468 137.682 23.3163C137.576 23.5805 137.425 23.827 137.23 24.0557C136.714 24.6742 135.991 25.0799 135.063 25.2728C134.16 25.4603 133.495 25.6254 133.068 25.7681C132.666 25.9054 132.332 26.1094 132.065 26.3799C131.799 26.6505 131.625 26.8481 131.543 26.9726C131.461 27.0972 131.335 27.3925 131.162 27.8586C130.99 28.3247 130.869 28.6458 130.798 28.822C129.828 31.0139 128.358 35.0714 126.389 40.9945C124.445 46.9122 123.399 51.3925 123.252 54.4356C123.228 54.7095 123.01 54.8893 122.597 54.975C122.211 55.0554 121.6 54.8328 120.764 54.3071C119.929 53.7815 119.439 53.1706 119.294 52.4745C119.149 51.7784 119.762 49.4858 121.132 45.5969C122.528 41.7027 123.938 37.8729 125.361 34.1075C126.778 30.3164 127.449 28.2404 127.374 27.8794C127.294 27.4927 127.091 27.2928 126.766 27.2798C126.435 27.2409 125.883 27.3019 125.109 27.4627L123.833 27.7279C123.498 27.7976 123.298 27.6778 123.234 27.3684C123.169 27.059 123.244 26.7072 123.458 26.3131C123.693 25.8878 124.079 25.4847 124.619 25.1036C125.184 24.7172 125.749 24.3307 126.314 23.9443C126.905 23.5525 127.61 22.8009 128.428 21.6895C129.272 20.5728 130.062 19.1982 130.798 17.5659C131.261 16.5553 132.278 15.8866 133.851 15.5597C134.392 15.4471 134.698 15.5584 134.767 15.8936C134.81 16.0999 134.426 17.1615 133.614 19.0785C132.802 20.9955 132.442 22.1732 132.533 22.6115C132.619 23.024 133.048 23.1498 133.822 22.9891C134.136 22.9506 134.732 22.8402 135.609 22.658ZM125.363 52.4636C125.321 52.2573 125.436 52.0989 125.709 51.9884C127.513 51.6133 129.313 50.634 131.109 49.0504C132.931 47.4615 133.71 46.0354 133.447 44.772C133.254 43.8439 132.451 43.083 131.036 42.4894C129.617 41.87 128.808 41.0834 128.609 40.1294C128.315 38.7114 128.962 37.2992 130.553 35.8928C132.138 34.4606 134.078 33.506 136.372 33.0291C136.785 32.9433 137.058 32.9 137.193 32.8989C137.321 32.8722 137.421 32.7707 137.492 32.5946C137.584 32.3873 137.685 32.1645 137.797 31.926C137.909 31.6876 138.155 31.4482 138.536 31.2078C138.911 30.9415 139.382 30.7495 139.949 30.6316C141.264 30.3583 141.961 30.415 142.042 30.8017C142.058 30.8791 142.058 30.9462 142.043 31.0032C141.706 31.4498 141.156 32.4921 140.394 34.1298C139.631 35.7675 139.134 37.2561 138.901 38.5955C138.846 38.8489 138.638 39.0132 138.277 39.0882C137.942 39.1579 137.567 39.0342 137.151 38.7171C136.73 38.3743 136.482 38.0224 136.407 37.6614C136.327 37.2747 136.308 36.8616 136.351 36.4223C136.389 35.9572 136.4 35.686 136.384 35.6087C136.314 35.2735 136.073 35.1488 135.661 35.2345C134.862 35.4007 134.075 35.8198 133.3 36.4918C132.545 37.1327 132.262 37.9044 132.45 38.8068C132.632 39.6834 133.461 40.4389 134.938 41.0733C135.503 41.3325 136.038 41.7054 136.542 42.1923C137.073 42.6737 137.402 43.2239 137.531 43.8426C137.895 45.5958 137.077 47.4199 135.077 49.3149C133.083 51.2356 130.745 52.4747 128.064 53.032C126.542 53.3482 125.642 53.1587 125.363 52.4636Z" fill="white"/>
<path d="M73.7054 52.0719C74.2734 54.8048 73.6159 57.3352 71.7329 59.6632C69.8703 61.9599 67.1858 63.4727 63.6795 64.2015C61.7458 64.6034 60.2172 64.6253 59.0938 64.2671C58.98 64.2369 58.8586 64.2353 58.7297 64.2621C58.6008 64.2889 58.1533 64.5298 57.3872 64.9849C56.6211 65.44 55.8127 65.7559 54.9619 65.9328C54.1368 66.1043 53.6734 65.9451 53.5716 65.4552C53.4322 64.7849 53.8827 62.8758 54.9228 59.7279C55.9576 56.5542 57.0049 54.3462 58.0646 53.1039C58.5203 52.5789 59.0059 52.2628 59.5216 52.1556C60.0372 52.0484 60.3245 52.1366 60.3835 52.4202C60.3942 52.4718 60.2807 52.8316 60.043 53.4996C59.8257 54.1365 59.6358 54.9694 59.4731 55.9984C59.3362 57.022 59.3401 57.8818 59.4848 58.578C59.6241 59.2483 59.8065 59.8021 60.0318 60.2394C60.283 60.6713 60.7431 61.0733 61.4121 61.4452C62.1016 61.7861 62.8588 61.8707 63.6838 61.6993C64.5346 61.5224 65.2996 61.2558 65.9786 60.8995C66.6834 60.5379 67.3512 60.0629 67.982 59.4745C68.6128 58.8862 69.0719 58.1184 69.3591 57.1711C69.6463 56.2238 69.6747 55.1958 69.4443 54.0872C69.2085 52.9528 68.622 51.8778 67.6847 50.8623C66.7474 49.8468 65.7832 49.0252 64.7921 48.3974C63.7956 47.7438 62.8421 46.9738 61.9316 46.0872C61.0157 45.1748 60.456 44.2287 60.2524 43.249C60.0434 42.2435 60.1083 41.2617 60.4471 40.3037C60.8117 39.3404 61.3298 38.5334 62.0014 37.8828C62.6935 37.201 63.5075 36.588 64.4433 36.0439C66.027 35.123 67.4764 34.5259 68.7913 34.2526C70.1062 33.9793 71.0864 33.8427 71.732 33.843C72.398 33.8122 72.8964 33.8162 73.2272 33.855C73.5838 33.8885 73.8008 33.8972 73.8781 33.8811C73.9555 33.865 74.0505 33.8049 74.1634 33.7008C74.8458 33.1017 75.6381 32.7084 76.5405 32.5208C77.4429 32.3333 77.9396 32.4586 78.0307 32.8969C78.1808 33.6188 77.6547 35.4227 76.4524 38.3084C75.2706 41.1629 74.2543 42.6786 73.4035 42.8555C72.7074 43.0002 72.3271 42.9178 72.2628 42.6084C72.2521 42.5569 72.3048 42.3576 72.421 42.0107C72.7739 40.8615 72.8136 39.6295 72.5403 38.3146C72.3903 37.5927 71.9657 37.1027 71.2665 36.8446C70.562 36.5607 69.8746 36.4884 69.2042 36.6277C68.5597 36.7617 67.9108 37.0041 67.2575 37.3551C66.6301 37.7007 66.0326 38.2552 65.4651 39.0187C64.9233 39.7768 64.7436 40.5941 64.9258 41.4707C65.1026 42.3215 65.6125 43.1569 66.4553 43.9769C67.3186 44.7657 68.22 45.4794 69.1596 46.1179C70.1196 46.7252 71.0478 47.5678 71.9442 48.6456C72.8611 49.6923 73.4481 50.8344 73.7054 52.0719ZM78.7193 61.963C77.5591 62.2042 76.9129 62.4595 76.7806 62.7291C76.1398 64.0457 74.9995 67.6178 73.3598 73.4455C71.6943 79.2785 70.7101 83.3426 70.4072 85.638C70.3684 85.9688 70.1556 86.1744 69.7689 86.2548C69.3822 86.3352 68.872 86.1453 68.2385 85.6853C67.605 85.2253 67.2212 84.673 67.0872 84.0284C66.8997 83.126 67.6181 80.1123 69.2424 74.9871C70.8721 69.8878 72.8314 63.9803 75.1203 57.2646C77.435 50.5436 78.771 46.5542 79.1282 45.2966C79.5058 44.0078 79.7022 43.3349 79.7172 43.278C79.7269 43.1953 79.7904 43.0476 79.9076 42.835C80.0194 42.5965 80.165 42.3915 80.3445 42.2197C80.8571 41.7097 81.6033 41.3529 82.583 41.1492C83.1244 41.0367 83.43 41.148 83.4996 41.4832C83.5318 41.6379 83.2994 42.3317 82.8026 43.5646C82.3316 44.7921 82.1228 45.5348 82.1764 45.7926C82.23 46.0505 82.347 46.1606 82.5275 46.1231C82.708 46.0856 83.011 45.8612 83.4366 45.45C84.7595 44.1799 86.0654 43.4109 87.3546 43.1429C87.8702 43.0357 88.3772 43.1455 88.8754 43.4723C89.3737 43.7991 89.7219 44.4395 89.9202 45.3934C90.3543 47.4818 90.1723 49.7116 89.3741 52.083C88.5707 54.4286 87.2077 56.5408 85.2851 58.4197C83.383 60.2675 81.1944 61.4486 78.7193 61.963ZM86.2775 48.2484C86.2025 47.8875 86.0662 47.62 85.8686 47.4459C85.6657 47.246 85.4482 47.1701 85.2162 47.2184C84.288 47.4113 83.3607 48.0613 82.4343 49.1683C81.5078 50.2753 80.7473 51.4689 80.1527 52.749C79.5839 54.0238 79.1123 55.1842 78.7381 56.2303C78.3895 57.271 78.2421 57.9202 78.2957 58.178C78.3493 58.4359 78.5833 58.6562 78.9979 58.839C79.4382 59.0164 79.9162 59.0515 80.4318 58.9444C82.0561 58.6068 83.5144 57.1471 84.8067 54.5654C86.1249 51.9784 86.6151 49.8727 86.2775 48.2484ZM93.545 57.9132C92.893 57.7529 92.2987 57.352 91.7619 56.7104C91.2509 56.0636 90.8855 55.2116 90.6658 54.1545C90.3228 52.5044 90.4923 50.6672 91.1743 48.6427C91.882 46.6129 93.0687 44.7524 94.7345 43.0614C96.426 41.365 98.3546 40.2917 100.52 39.8416C101.526 39.6326 102.42 39.7291 103.203 40.1312C103.986 40.5333 104.433 41.0051 104.546 41.5465C104.653 42.0622 104.662 42.4908 104.571 42.8323C104.481 43.1739 104.446 43.3962 104.468 43.4993C104.532 43.8087 104.809 43.9125 105.299 43.8107C105.789 43.7089 106.149 43.5667 106.38 43.3842C106.611 43.2017 106.753 43.1051 106.804 43.0944C107.011 43.0515 107.17 43.3008 107.282 43.8422C107.39 44.3578 107.26 45.0302 106.895 45.8593C106.524 46.6626 105.999 47.3095 105.321 47.8001C105.261 48.0278 105.181 48.3538 105.081 48.778C104.975 49.1765 104.684 49.9095 104.207 50.977C103.724 52.0187 103.171 52.9809 102.547 53.8635C101.944 54.7151 101.07 55.5557 99.9246 56.3855C98.8103 57.2357 97.7375 57.768 96.7062 57.9824C95.6749 58.1967 94.6211 58.1737 93.545 57.9132ZM100.787 49.4689C100.744 49.2626 100.606 49.1836 100.374 49.2318C100.039 49.3015 99.6684 49.4592 99.2622 49.705C98.8818 49.9455 98.6659 50.071 98.6143 50.0817C98.4596 50.1139 98.3582 50.014 98.3099 49.7819C98.1009 48.7764 98.2824 47.8377 98.8542 46.9657C99.0735 46.5974 99.4324 46.2538 99.931 45.935C100.424 45.5904 100.783 45.2469 101.008 44.9043C101.253 44.5306 101.3 43.9828 101.15 43.2609C100.968 42.3843 100.413 42.0425 99.4848 42.2354C97.8347 42.5784 96.5058 44.0784 95.4981 46.7354C94.485 49.3666 94.1687 51.5975 94.5492 53.428C94.6778 54.0468 94.994 54.5325 95.4976 54.885C96.027 55.2322 96.5882 55.3442 97.1812 55.2209C98.5218 54.9423 99.5024 54.1602 100.123 52.8747C100.764 51.5581 100.985 50.4228 100.787 49.4689ZM119.444 46.8819C118.954 46.9838 118.529 46.8165 118.17 46.3803C117.805 45.9182 117.574 45.4551 117.477 44.991C117.376 44.5012 117.415 43.9147 117.596 43.2316C117.526 42.8965 117.362 42.7557 117.105 42.8093C116.099 43.0183 115.078 43.8626 114.04 45.3423C112.998 46.7962 112.172 48.2589 111.564 49.7302C110.95 51.1757 110.416 52.6181 109.962 54.0572C109.684 54.9218 108.862 55.4961 107.496 55.7801C106.8 55.9248 106.419 55.8425 106.355 55.5331C106.21 54.837 106.935 51.9832 108.529 46.972C110.144 41.9295 111.332 39.1679 112.092 38.687C112.601 38.2855 113.203 38.0124 113.899 37.8677C114.621 37.7177 115.014 37.7973 115.078 38.1067C115.137 38.3903 114.959 39.0192 114.542 39.9932C114.126 40.9673 113.942 41.5704 113.991 41.8024C114.039 42.0344 114.153 42.1317 114.334 42.0942C114.437 42.0728 114.688 41.8591 115.088 41.4533C116.046 40.3667 117.256 39.2007 118.718 37.9553L118.97 37.4189C119.428 36.5168 120.237 35.9452 121.397 35.7041C122.583 35.4576 123.224 35.5663 123.321 36.0304C123.296 36.1701 123.21 36.4031 123.063 36.7296C121.605 39.9374 120.496 43.2072 119.736 46.5389C119.67 46.7408 119.573 46.8551 119.444 46.8819ZM136.609 22.658L138.488 22.1868C138.745 22.1332 138.885 22.1579 138.906 22.2611C138.928 22.3642 138.929 22.4985 138.909 22.6639C138.89 22.8293 138.814 23.0468 138.682 23.3163C138.576 23.5805 138.425 23.827 138.23 24.0557C137.714 24.6742 136.991 25.0799 136.063 25.2728C135.16 25.4603 134.495 25.6254 134.068 25.7681C133.666 25.9054 133.332 26.1094 133.065 26.3799C132.799 26.6505 132.625 26.8481 132.543 26.9726C132.461 27.0972 132.335 27.3925 132.162 27.8586C131.99 28.3247 131.869 28.6458 131.798 28.822C130.828 31.0139 129.358 35.0714 127.389 40.9945C125.445 46.9122 124.399 51.3925 124.252 54.4356C124.228 54.7095 124.01 54.8893 123.597 54.975C123.211 55.0554 122.6 54.8328 121.764 54.3071C120.929 53.7815 120.439 53.1706 120.294 52.4745C120.149 51.7784 120.762 49.4858 122.132 45.5969C123.528 41.7027 124.938 37.8729 126.361 34.1075C127.778 30.3164 128.449 28.2404 128.374 27.8794C128.294 27.4927 128.091 27.2928 127.766 27.2798C127.435 27.2409 126.883 27.3019 126.109 27.4627L124.833 27.7279C124.498 27.7976 124.298 27.6778 124.234 27.3684C124.169 27.059 124.244 26.7072 124.458 26.3131C124.693 25.8878 125.079 25.4847 125.619 25.1036C126.184 24.7172 126.749 24.3307 127.314 23.9443C127.905 23.5525 128.61 22.8009 129.428 21.6895C130.272 20.5728 131.062 19.1982 131.798 17.5659C132.261 16.5553 133.278 15.8866 134.851 15.5597C135.392 15.4471 135.698 15.5584 135.767 15.8936C135.81 16.0999 135.426 17.1615 134.614 19.0785C133.802 20.9955 133.442 22.1732 133.533 22.6115C133.619 23.024 134.048 23.1498 134.822 22.9891C135.136 22.9506 135.732 22.8402 136.609 22.658ZM126.363 52.4636C126.321 52.2573 126.436 52.0989 126.709 51.9884C128.513 51.6133 130.313 50.634 132.109 49.0504C133.931 47.4615 134.71 46.0354 134.447 44.772C134.254 43.8439 133.451 43.083 132.036 42.4894C130.617 41.87 129.808 41.0834 129.609 40.1294C129.315 38.7114 129.962 37.2992 131.553 35.8928C133.138 34.4606 135.078 33.506 137.372 33.0291C137.785 32.9433 138.058 32.9 138.193 32.8989C138.321 32.8722 138.421 32.7707 138.492 32.5946C138.584 32.3873 138.685 32.1645 138.797 31.926C138.909 31.6876 139.155 31.4482 139.536 31.2078C139.911 30.9415 140.382 30.7495 140.949 30.6316C142.264 30.3583 142.961 30.415 143.042 30.8017C143.058 30.8791 143.058 30.9462 143.043 31.0032C142.706 31.4498 142.156 32.4921 141.394 34.1298C140.631 35.7675 140.134 37.2561 139.901 38.5955C139.846 38.8489 139.638 39.0132 139.277 39.0882C138.942 39.1579 138.567 39.0342 138.151 38.7171C137.73 38.3743 137.482 38.0224 137.407 37.6614C137.327 37.2747 137.308 36.8616 137.351 36.4223C137.389 35.9572 137.4 35.686 137.384 35.6087C137.314 35.2735 137.073 35.1488 136.661 35.2345C135.862 35.4007 135.075 35.8198 134.3 36.4918C133.545 37.1327 133.262 37.9044 133.45 38.8068C133.632 39.6834 134.461 40.4389 135.938 41.0733C136.503 41.3325 137.038 41.7054 137.542 42.1923C138.073 42.6737 138.402 43.2239 138.531 43.8426C138.895 45.5958 138.077 47.4199 136.077 49.3149C134.083 51.2356 131.745 52.4747 129.064 53.032C127.542 53.3482 126.642 53.1587 126.363 52.4636Z" fill="black"/>
</svg>
