<svg width="152" height="91" viewBox="0 0 152 91" fill="none" xmlns="http://www.w3.org/2000/svg">
<path d="M10.1528 47.518C7.42467 47.518 5.3354 46.741 3.885 45.187C2.46913 43.633 1.7612 41.4401 1.7612 38.6084V19.1316C1.7612 16.2999 2.46913 14.107 3.885 12.553C5.3354 10.999 7.42467 10.222 10.1528 10.222C12.8809 10.222 14.9529 10.999 16.3688 12.553C17.8192 14.107 18.5444 16.2999 18.5444 19.1316V22.9648H13.1572V18.769C13.1572 16.5243 12.2075 15.402 10.3082 15.402C8.40887 15.402 7.4592 16.5243 7.4592 18.769V39.0228C7.4592 41.2329 8.40887 42.338 10.3082 42.338C12.2075 42.338 13.1572 41.2329 13.1572 39.0228V33.4802H18.5444V38.6084C18.5444 41.4401 17.8192 43.633 16.3688 45.187C14.9529 46.741 12.8809 47.518 10.1528 47.518ZM30.2909 47.518C27.4937 47.518 25.3526 46.7237 23.8677 45.1352C22.3827 43.5467 21.6403 41.302 21.6403 38.4012V19.3388C21.6403 16.438 22.3827 14.1933 23.8677 12.6048C25.3526 11.0163 27.4937 10.222 30.2909 10.222C33.0881 10.222 35.2291 11.0163 36.7141 12.6048C38.199 14.1933 38.9415 16.438 38.9415 19.3388V38.4012C38.9415 41.302 38.199 43.5467 36.7141 45.1352C35.2291 46.7237 33.0881 47.518 30.2909 47.518ZM30.2909 42.338C32.2593 42.338 33.2435 41.1466 33.2435 38.7638V18.9762C33.2435 16.5934 32.2593 15.402 30.2909 15.402C28.3225 15.402 27.3383 16.5934 27.3383 18.9762V38.7638C27.3383 41.1466 28.3225 42.338 30.2909 42.338ZM42.7949 10.74H48.4929V41.82H57.8687V47H42.7949V10.74ZM60.6011 10.74H66.2991V41.82H75.6749V47H60.6011V10.74ZM78.4074 10.74H93.9474V15.92H84.1054V25.503H91.9272V30.683H84.1054V41.82H93.9474V47H78.4074V10.74ZM101.68 15.92H95.7232V10.74H113.335V15.92H107.378V47H101.68V15.92ZM124.128 47.518C121.331 47.518 119.19 46.7237 117.705 45.1352C116.22 43.5467 115.477 41.302 115.477 38.4012V19.3388C115.477 16.438 116.22 14.1933 117.705 12.6048C119.19 11.0163 121.331 10.222 124.128 10.222C126.925 10.222 129.066 11.0163 130.551 12.6048C132.036 14.1933 132.778 16.438 132.778 19.3388V38.4012C132.778 41.302 132.036 43.5467 130.551 45.1352C129.066 46.7237 126.925 47.518 124.128 47.518ZM124.128 42.338C126.096 42.338 127.08 41.1466 127.08 38.7638V18.9762C127.08 16.5934 126.096 15.402 124.128 15.402C122.159 15.402 121.175 16.5934 121.175 18.9762V38.7638C121.175 41.1466 122.159 42.338 124.128 42.338Z" fill="white"/>
<path d="M71.7054 50.0719C72.2734 52.8048 71.6159 55.3352 69.7329 57.6632C67.8703 59.9599 65.1858 61.4727 61.6795 62.2015C59.7458 62.6034 58.2172 62.6253 57.0938 62.2671C56.98 62.2369 56.8586 62.2353 56.7297 62.2621C56.6008 62.2889 56.1533 62.5298 55.3872 62.9849C54.6211 63.44 53.8127 63.7559 52.9619 63.9328C52.1368 64.1043 51.6734 63.9451 51.5716 63.4552C51.4322 62.7849 51.8827 60.8758 52.9228 57.7279C53.9576 54.5542 55.0049 52.3462 56.0646 51.1039C56.5203 50.5789 57.0059 50.2628 57.5216 50.1556C58.0372 50.0484 58.3245 50.1366 58.3835 50.4202C58.3942 50.4718 58.2807 50.8316 58.043 51.4996C57.8257 52.1365 57.6358 52.9694 57.4731 53.9984C57.3362 55.022 57.3401 55.8818 57.4848 56.578C57.6241 57.2483 57.8065 57.8021 58.0318 58.2394C58.283 58.6713 58.7431 59.0733 59.4121 59.4452C60.1016 59.7861 60.8588 59.8707 61.6838 59.6993C62.5346 59.5224 63.2996 59.2558 63.9786 58.8995C64.6834 58.5379 65.3512 58.0629 65.982 57.4745C66.6128 56.8862 67.0719 56.1184 67.3591 55.1711C67.6463 54.2238 67.6747 53.1958 67.4443 52.0872C67.2085 50.9528 66.622 49.8778 65.6847 48.8623C64.7474 47.8468 63.7832 47.0252 62.7921 46.3974C61.7956 45.7438 60.8421 44.9738 59.9316 44.0872C59.0157 43.1748 58.456 42.2287 58.2524 41.249C58.0434 40.2435 58.1083 39.2617 58.4471 38.3037C58.8117 37.3404 59.3298 36.5334 60.0014 35.8828C60.6935 35.201 61.5075 34.588 62.4433 34.0439C64.027 33.123 65.4764 32.5259 66.7913 32.2526C68.1062 31.9793 69.0864 31.8427 69.732 31.843C70.398 31.8122 70.8964 31.8162 71.2272 31.855C71.5838 31.8885 71.8008 31.8972 71.8781 31.8811C71.9555 31.865 72.0505 31.8049 72.1634 31.7008C72.8458 31.1017 73.6381 30.7084 74.5405 30.5208C75.4429 30.3333 75.9396 30.4586 76.0307 30.8969C76.1808 31.6188 75.6547 33.4227 74.4524 36.3084C73.2706 39.1629 72.2543 40.6786 71.4035 40.8555C70.7074 41.0002 70.3271 40.9178 70.2628 40.6084C70.2521 40.5569 70.3048 40.3576 70.421 40.0107C70.7739 38.8615 70.8136 37.6295 70.5403 36.3146C70.3903 35.5927 69.9657 35.1027 69.2665 34.8446C68.562 34.5607 67.8746 34.4884 67.2042 34.6277C66.5597 34.7617 65.9108 35.0041 65.2575 35.3551C64.6301 35.7007 64.0326 36.2552 63.4651 37.0187C62.9233 37.7768 62.7436 38.5941 62.9258 39.4707C63.1026 40.3215 63.6125 41.1569 64.4553 41.9769C65.3186 42.7657 66.22 43.4794 67.1596 44.1179C68.1196 44.7252 69.0478 45.5678 69.9442 46.6456C70.8611 47.6923 71.4481 48.8344 71.7054 50.0719ZM76.7193 59.963C75.5591 60.2042 74.9129 60.4595 74.7806 60.7291C74.1398 62.0457 72.9995 65.6178 71.3598 71.4455C69.6943 77.2785 68.7101 81.3426 68.4072 83.638C68.3684 83.9688 68.1556 84.1744 67.7689 84.2548C67.3822 84.3352 66.872 84.1453 66.2385 83.6853C65.605 83.2253 65.2212 82.673 65.0872 82.0284C64.8997 81.126 65.6181 78.1123 67.2424 72.9871C68.8721 67.8878 70.8314 61.9803 73.1203 55.2646C75.435 48.5436 76.771 44.5542 77.1282 43.2966C77.5058 42.0078 77.7022 41.3349 77.7172 41.278C77.7269 41.1953 77.7904 41.0476 77.9076 40.835C78.0194 40.5965 78.165 40.3915 78.3445 40.2197C78.8571 39.7097 79.6033 39.3529 80.583 39.1492C81.1244 39.0367 81.43 39.148 81.4996 39.4832C81.5318 39.6379 81.2994 40.3317 80.8026 41.5646C80.3316 42.7921 80.1228 43.5348 80.1764 43.7926C80.23 44.0505 80.347 44.1606 80.5275 44.1231C80.708 44.0856 81.011 43.8612 81.4366 43.45C82.7595 42.1799 84.0654 41.4109 85.3546 41.1429C85.8702 41.0357 86.3772 41.1455 86.8754 41.4723C87.3737 41.7991 87.7219 42.4395 87.9202 43.3934C88.3543 45.4818 88.1723 47.7116 87.3741 50.083C86.5707 52.4286 85.2077 54.5408 83.2851 56.4197C81.383 58.2675 79.1944 59.4486 76.7193 59.963ZM84.2775 46.2484C84.2025 45.8875 84.0662 45.62 83.8686 45.4459C83.6657 45.246 83.4482 45.1701 83.2162 45.2184C82.288 45.4113 81.3607 46.0613 80.4343 47.1683C79.5078 48.2753 78.7473 49.4689 78.1527 50.749C77.5839 52.0238 77.1123 53.1842 76.7381 54.2303C76.3895 55.271 76.2421 55.9202 76.2957 56.178C76.3493 56.4359 76.5833 56.6562 76.9979 56.839C77.4382 57.0164 77.9162 57.0515 78.4318 56.9444C80.0561 56.6068 81.5144 55.1471 82.8067 52.5654C84.1249 49.9784 84.6151 47.8727 84.2775 46.2484ZM91.545 55.9132C90.893 55.7529 90.2987 55.352 89.7619 54.7104C89.2509 54.0636 88.8855 53.2116 88.6658 52.1545C88.3228 50.5044 88.4923 48.6672 89.1743 46.6427C89.882 44.6129 91.0687 42.7524 92.7345 41.0614C94.426 39.365 96.3546 38.2917 98.5203 37.8416C99.5258 37.6326 100.42 37.7291 101.203 38.1312C101.986 38.5333 102.433 39.0051 102.546 39.5465C102.653 40.0622 102.662 40.4908 102.571 40.8323C102.481 41.1739 102.446 41.3962 102.468 41.4993C102.532 41.8087 102.809 41.9125 103.299 41.8107C103.789 41.7089 104.149 41.5667 104.38 41.3842C104.611 41.2017 104.753 41.1051 104.804 41.0944C105.011 41.0515 105.17 41.3008 105.282 41.8422C105.39 42.3578 105.26 43.0302 104.895 43.8593C104.524 44.6626 103.999 45.3095 103.321 45.8001C103.261 46.0278 103.181 46.3538 103.081 46.778C102.975 47.1765 102.684 47.9095 102.207 48.977C101.724 50.0187 101.171 50.9809 100.547 51.8635C99.9442 52.7151 99.07 53.5557 97.9246 54.3855C96.8103 55.2357 95.7375 55.768 94.7062 55.9824C93.6749 56.1967 92.6211 56.1737 91.545 55.9132ZM98.7865 47.4689C98.7437 47.2626 98.6062 47.1836 98.3742 47.2318C98.039 47.3015 97.6684 47.4592 97.2622 47.705C96.8818 47.9455 96.6659 48.071 96.6143 48.0817C96.4596 48.1139 96.3582 48.014 96.3099 47.7819C96.1009 46.7764 96.2824 45.8377 96.8542 44.9657C97.0735 44.5974 97.4324 44.2538 97.931 43.935C98.4242 43.5904 98.7831 43.2469 99.0078 42.9043C99.2529 42.5306 99.3004 41.9828 99.1503 41.2609C98.9681 40.3843 98.413 40.0425 97.4848 40.2354C95.8347 40.5784 94.5058 42.0784 93.4981 44.7354C92.485 47.3666 92.1687 49.5975 92.5492 51.428C92.6778 52.0468 92.994 52.5325 93.4976 52.885C94.027 53.2322 94.5882 53.3442 95.1812 53.2209C96.5218 52.9423 97.5024 52.1602 98.1228 50.8747C98.7636 49.5581 98.9848 48.4228 98.7865 47.4689ZM117.444 44.8819C116.954 44.9838 116.529 44.8165 116.17 44.3803C115.805 43.9182 115.574 43.4551 115.477 42.991C115.376 42.5012 115.415 41.9147 115.596 41.2316C115.526 40.8965 115.362 40.7557 115.105 40.8093C114.099 41.0183 113.078 41.8626 112.04 43.3423C110.998 44.7962 110.172 46.2589 109.564 47.7302C108.95 49.1757 108.416 50.6181 107.962 52.0572C107.684 52.9218 106.862 53.4961 105.496 53.7801C104.8 53.9248 104.419 53.8425 104.355 53.5331C104.21 52.837 104.935 49.9832 106.529 44.972C108.144 39.9295 109.332 37.1679 110.092 36.687C110.601 36.2855 111.203 36.0124 111.899 35.8677C112.621 35.7177 113.014 35.7973 113.078 36.1067C113.137 36.3903 112.959 37.0192 112.542 37.9932C112.126 38.9673 111.942 39.5704 111.991 39.8024C112.039 40.0344 112.153 40.1317 112.334 40.0942C112.437 40.0728 112.688 39.8591 113.088 39.4533C114.046 38.3667 115.256 37.2007 116.718 35.9553L116.97 35.4189C117.428 34.5168 118.237 33.9452 119.397 33.7041C120.583 33.4576 121.224 33.5663 121.321 34.0304C121.296 34.1701 121.21 34.4031 121.063 34.7296C119.605 37.9374 118.496 41.2072 117.736 44.5389C117.67 44.7408 117.573 44.8551 117.444 44.8819ZM134.609 20.658L136.488 20.1868C136.745 20.1332 136.885 20.1579 136.906 20.2611C136.928 20.3642 136.929 20.4985 136.909 20.6639C136.89 20.8293 136.814 21.0468 136.682 21.3163C136.576 21.5805 136.425 21.827 136.23 22.0557C135.714 22.6742 134.991 23.0799 134.063 23.2728C133.16 23.4603 132.495 23.6254 132.068 23.7681C131.666 23.9054 131.332 24.1094 131.065 24.3799C130.799 24.6505 130.625 24.8481 130.543 24.9726C130.461 25.0972 130.335 25.3925 130.162 25.8586C129.99 26.3247 129.869 26.6458 129.798 26.822C128.828 29.0139 127.358 33.0714 125.389 38.9945C123.445 44.9122 122.399 49.3925 122.252 52.4356C122.228 52.7095 122.01 52.8893 121.597 52.975C121.211 53.0554 120.6 52.8328 119.764 52.3071C118.929 51.7815 118.439 51.1706 118.294 50.4745C118.149 49.7784 118.762 47.4858 120.132 43.5969C121.528 39.7027 122.938 35.8729 124.361 32.1075C125.778 28.3164 126.449 26.2404 126.374 25.8794C126.294 25.4927 126.091 25.2928 125.766 25.2798C125.435 25.2409 124.883 25.3019 124.109 25.4627L122.833 25.7279C122.498 25.7976 122.298 25.6778 122.234 25.3684C122.169 25.059 122.244 24.7072 122.458 24.3131C122.693 23.8878 123.079 23.4847 123.619 23.1036C124.184 22.7172 124.749 22.3307 125.314 21.9443C125.905 21.5525 126.61 20.8009 127.428 19.6895C128.272 18.5728 129.062 17.1982 129.798 15.5659C130.261 14.5553 131.278 13.8866 132.851 13.5597C133.392 13.4471 133.698 13.5584 133.767 13.8936C133.81 14.0999 133.426 15.1615 132.614 17.0785C131.802 18.9955 131.442 20.1732 131.533 20.6115C131.619 21.024 132.048 21.1498 132.822 20.9891C133.136 20.9506 133.732 20.8402 134.609 20.658ZM124.363 50.4636C124.321 50.2573 124.436 50.0989 124.709 49.9884C126.513 49.6133 128.313 48.634 130.109 47.0504C131.931 45.4615 132.71 44.0354 132.447 42.772C132.254 41.8439 131.451 41.083 130.036 40.4894C128.617 39.87 127.808 39.0834 127.609 38.1294C127.315 36.7114 127.962 35.2992 129.553 33.8928C131.138 32.4606 133.078 31.506 135.372 31.0291C135.785 30.9433 136.058 30.9 136.193 30.8989C136.321 30.8722 136.421 30.7707 136.492 30.5946C136.584 30.3873 136.685 30.1645 136.797 29.926C136.909 29.6876 137.155 29.4482 137.536 29.2078C137.911 28.9415 138.382 28.7495 138.949 28.6316C140.264 28.3583 140.961 28.415 141.042 28.8017C141.058 28.8791 141.058 28.9462 141.043 29.0032C140.706 29.4498 140.156 30.4921 139.394 32.1298C138.631 33.7675 138.134 35.2561 137.901 36.5955C137.846 36.8489 137.638 37.0132 137.277 37.0882C136.942 37.1579 136.567 37.0342 136.151 36.7171C135.73 36.3743 135.482 36.0224 135.407 35.6614C135.327 35.2747 135.308 34.8616 135.351 34.4223C135.389 33.9572 135.4 33.686 135.384 33.6087C135.314 33.2735 135.073 33.1488 134.661 33.2345C133.862 33.4007 133.075 33.8198 132.3 34.4918C131.545 35.1327 131.262 35.9044 131.45 36.8068C131.632 37.6834 132.461 38.4389 133.938 39.0733C134.503 39.3325 135.038 39.7054 135.542 40.1923C136.073 40.6737 136.402 41.2239 136.531 41.8426C136.895 43.5958 136.077 45.4199 134.077 47.3149C132.083 49.2356 129.745 50.4747 127.064 51.032C125.542 51.3482 124.642 51.1587 124.363 50.4636Z" fill="black"/>
<path d="M73.7054 52.0719C74.2734 54.8048 73.6159 57.3352 71.7329 59.6632C69.8703 61.9599 67.1858 63.4727 63.6795 64.2015C61.7458 64.6034 60.2172 64.6253 59.0938 64.2671C58.98 64.2369 58.8586 64.2353 58.7297 64.2621C58.6008 64.2889 58.1533 64.5298 57.3872 64.9849C56.6211 65.44 55.8127 65.7559 54.9619 65.9328C54.1368 66.1043 53.6734 65.9451 53.5716 65.4552C53.4322 64.7849 53.8827 62.8758 54.9228 59.7279C55.9576 56.5542 57.0049 54.3462 58.0646 53.1039C58.5203 52.5789 59.0059 52.2628 59.5216 52.1556C60.0372 52.0484 60.3245 52.1366 60.3835 52.4202C60.3942 52.4718 60.2807 52.8316 60.043 53.4996C59.8257 54.1365 59.6358 54.9694 59.4731 55.9984C59.3362 57.022 59.3401 57.8818 59.4848 58.578C59.6241 59.2483 59.8065 59.8021 60.0318 60.2394C60.283 60.6713 60.7431 61.0733 61.4121 61.4452C62.1016 61.7861 62.8588 61.8707 63.6838 61.6993C64.5346 61.5224 65.2996 61.2558 65.9786 60.8995C66.6834 60.5379 67.3512 60.0629 67.982 59.4745C68.6128 58.8862 69.0719 58.1184 69.3591 57.1711C69.6463 56.2238 69.6747 55.1958 69.4443 54.0872C69.2085 52.9528 68.622 51.8778 67.6847 50.8623C66.7474 49.8468 65.7832 49.0252 64.7921 48.3974C63.7956 47.7438 62.8421 46.9738 61.9316 46.0872C61.0157 45.1748 60.456 44.2287 60.2524 43.249C60.0434 42.2435 60.1083 41.2617 60.4471 40.3037C60.8117 39.3404 61.3298 38.5334 62.0014 37.8828C62.6935 37.201 63.5075 36.588 64.4433 36.0439C66.027 35.123 67.4764 34.5259 68.7913 34.2526C70.1062 33.9793 71.0864 33.8427 71.732 33.843C72.398 33.8122 72.8964 33.8162 73.2272 33.855C73.5838 33.8885 73.8008 33.8972 73.8781 33.8811C73.9555 33.865 74.0505 33.8049 74.1634 33.7008C74.8458 33.1017 75.6381 32.7084 76.5405 32.5208C77.4429 32.3333 77.9396 32.4586 78.0307 32.8969C78.1808 33.6188 77.6547 35.4227 76.4524 38.3084C75.2706 41.1629 74.2543 42.6786 73.4035 42.8555C72.7074 43.0002 72.3271 42.9178 72.2628 42.6084C72.2521 42.5569 72.3048 42.3576 72.421 42.0107C72.7739 40.8615 72.8136 39.6295 72.5403 38.3146C72.3903 37.5927 71.9657 37.1027 71.2665 36.8446C70.562 36.5607 69.8746 36.4884 69.2042 36.6277C68.5597 36.7617 67.9108 37.0041 67.2575 37.3551C66.6301 37.7007 66.0326 38.2552 65.4651 39.0187C64.9233 39.7768 64.7436 40.5941 64.9258 41.4707C65.1026 42.3215 65.6125 43.1569 66.4553 43.9769C67.3186 44.7657 68.22 45.4794 69.1596 46.1179C70.1196 46.7252 71.0478 47.5678 71.9442 48.6456C72.8611 49.6923 73.4481 50.8344 73.7054 52.0719ZM78.7193 61.963C77.5591 62.2042 76.9129 62.4595 76.7806 62.7291C76.1398 64.0457 74.9995 67.6178 73.3598 73.4455C71.6943 79.2785 70.7101 83.3426 70.4072 85.638C70.3684 85.9688 70.1556 86.1744 69.7689 86.2548C69.3822 86.3352 68.872 86.1453 68.2385 85.6853C67.605 85.2253 67.2212 84.673 67.0872 84.0284C66.8997 83.126 67.6181 80.1123 69.2424 74.9871C70.8721 69.8878 72.8314 63.9803 75.1203 57.2646C77.435 50.5436 78.771 46.5542 79.1282 45.2966C79.5058 44.0078 79.7022 43.3349 79.7172 43.278C79.7269 43.1953 79.7904 43.0476 79.9076 42.835C80.0194 42.5965 80.165 42.3915 80.3445 42.2197C80.8571 41.7097 81.6033 41.3529 82.583 41.1492C83.1244 41.0367 83.43 41.148 83.4996 41.4832C83.5318 41.6379 83.2994 42.3317 82.8026 43.5646C82.3316 44.7921 82.1228 45.5348 82.1764 45.7926C82.23 46.0505 82.347 46.1606 82.5275 46.1231C82.708 46.0856 83.011 45.8612 83.4366 45.45C84.7595 44.1799 86.0654 43.4109 87.3546 43.1429C87.8702 43.0357 88.3772 43.1455 88.8754 43.4723C89.3737 43.7991 89.7219 44.4395 89.9202 45.3934C90.3543 47.4818 90.1723 49.7116 89.3741 52.083C88.5707 54.4286 87.2077 56.5408 85.2851 58.4197C83.383 60.2675 81.1944 61.4486 78.7193 61.963ZM86.2775 48.2484C86.2025 47.8875 86.0662 47.62 85.8686 47.4459C85.6657 47.246 85.4482 47.1701 85.2162 47.2184C84.288 47.4113 83.3607 48.0613 82.4343 49.1683C81.5078 50.2753 80.7473 51.4689 80.1527 52.749C79.5839 54.0238 79.1123 55.1842 78.7381 56.2303C78.3895 57.271 78.2421 57.9202 78.2957 58.178C78.3493 58.4359 78.5833 58.6562 78.9979 58.839C79.4382 59.0164 79.9162 59.0515 80.4318 58.9444C82.0561 58.6068 83.5144 57.1471 84.8067 54.5654C86.1249 51.9784 86.6151 49.8727 86.2775 48.2484ZM93.545 57.9132C92.893 57.7529 92.2987 57.352 91.7619 56.7104C91.2509 56.0636 90.8855 55.2116 90.6658 54.1545C90.3228 52.5044 90.4923 50.6672 91.1743 48.6427C91.882 46.6129 93.0687 44.7524 94.7345 43.0614C96.426 41.365 98.3546 40.2917 100.52 39.8416C101.526 39.6326 102.42 39.7291 103.203 40.1312C103.986 40.5333 104.433 41.0051 104.546 41.5465C104.653 42.0622 104.662 42.4908 104.571 42.8323C104.481 43.1739 104.446 43.3962 104.468 43.4993C104.532 43.8087 104.809 43.9125 105.299 43.8107C105.789 43.7089 106.149 43.5667 106.38 43.3842C106.611 43.2017 106.753 43.1051 106.804 43.0944C107.011 43.0515 107.17 43.3008 107.282 43.8422C107.39 44.3578 107.26 45.0302 106.895 45.8593C106.524 46.6626 105.999 47.3095 105.321 47.8001C105.261 48.0278 105.181 48.3538 105.081 48.778C104.975 49.1765 104.684 49.9095 104.207 50.977C103.724 52.0187 103.171 52.9809 102.547 53.8635C101.944 54.7151 101.07 55.5557 99.9246 56.3855C98.8103 57.2357 97.7375 57.768 96.7062 57.9824C95.6749 58.1967 94.6211 58.1737 93.545 57.9132ZM100.787 49.4689C100.744 49.2626 100.606 49.1836 100.374 49.2318C100.039 49.3015 99.6684 49.4592 99.2622 49.705C98.8818 49.9455 98.6659 50.071 98.6143 50.0817C98.4596 50.1139 98.3582 50.014 98.3099 49.7819C98.1009 48.7764 98.2824 47.8377 98.8542 46.9657C99.0735 46.5974 99.4324 46.2538 99.931 45.935C100.424 45.5904 100.783 45.2469 101.008 44.9043C101.253 44.5306 101.3 43.9828 101.15 43.2609C100.968 42.3843 100.413 42.0425 99.4848 42.2354C97.8347 42.5784 96.5058 44.0784 95.4981 46.7354C94.485 49.3666 94.1687 51.5975 94.5492 53.428C94.6778 54.0468 94.994 54.5325 95.4976 54.885C96.027 55.2322 96.5882 55.3442 97.1812 55.2209C98.5218 54.9423 99.5024 54.1602 100.123 52.8747C100.764 51.5581 100.985 50.4228 100.787 49.4689ZM119.444 46.8819C118.954 46.9838 118.529 46.8165 118.17 46.3803C117.805 45.9182 117.574 45.4551 117.477 44.991C117.376 44.5012 117.415 43.9147 117.596 43.2316C117.526 42.8965 117.362 42.7557 117.105 42.8093C116.099 43.0183 115.078 43.8626 114.04 45.3423C112.998 46.7962 112.172 48.2589 111.564 49.7302C110.95 51.1757 110.416 52.6181 109.962 54.0572C109.684 54.9218 108.862 55.4961 107.496 55.7801C106.8 55.9248 106.419 55.8425 106.355 55.5331C106.21 54.837 106.935 51.9832 108.529 46.972C110.144 41.9295 111.332 39.1679 112.092 38.687C112.601 38.2855 113.203 38.0124 113.899 37.8677C114.621 37.7177 115.014 37.7973 115.078 38.1067C115.137 38.3903 114.959 39.0192 114.542 39.9932C114.126 40.9673 113.942 41.5704 113.991 41.8024C114.039 42.0344 114.153 42.1317 114.334 42.0942C114.437 42.0728 114.688 41.8591 115.088 41.4533C116.046 40.3667 117.256 39.2007 118.718 37.9553L118.97 37.4189C119.428 36.5168 120.237 35.9452 121.397 35.7041C122.583 35.4576 123.224 35.5663 123.321 36.0304C123.296 36.1701 123.21 36.4031 123.063 36.7296C121.605 39.9374 120.496 43.2072 119.736 46.5389C119.67 46.7408 119.573 46.8551 119.444 46.8819ZM136.609 22.658L138.488 22.1868C138.745 22.1332 138.885 22.1579 138.906 22.2611C138.928 22.3642 138.929 22.4985 138.909 22.6639C138.89 22.8293 138.814 23.0468 138.682 23.3163C138.576 23.5805 138.425 23.827 138.23 24.0557C137.714 24.6742 136.991 25.0799 136.063 25.2728C135.16 25.4603 134.495 25.6254 134.068 25.7681C133.666 25.9054 133.332 26.1094 133.065 26.3799C132.799 26.6505 132.625 26.8481 132.543 26.9726C132.461 27.0972 132.335 27.3925 132.162 27.8586C131.99 28.3247 131.869 28.6458 131.798 28.822C130.828 31.0139 129.358 35.0714 127.389 40.9945C125.445 46.9122 124.399 51.3925 124.252 54.4356C124.228 54.7095 124.01 54.8893 123.597 54.975C123.211 55.0554 122.6 54.8328 121.764 54.3071C120.929 53.7815 120.439 53.1706 120.294 52.4745C120.149 51.7784 120.762 49.4858 122.132 45.5969C123.528 41.7027 124.938 37.8729 126.361 34.1075C127.778 30.3164 128.449 28.2404 128.374 27.8794C128.294 27.4927 128.091 27.2928 127.766 27.2798C127.435 27.2409 126.883 27.3019 126.109 27.4627L124.833 27.7279C124.498 27.7976 124.298 27.6778 124.234 27.3684C124.169 27.059 124.244 26.7072 124.458 26.3131C124.693 25.8878 125.079 25.4847 125.619 25.1036C126.184 24.7172 126.749 24.3307 127.314 23.9443C127.905 23.5525 128.61 22.8009 129.428 21.6895C130.272 20.5728 131.062 19.1982 131.798 17.5659C132.261 16.5553 133.278 15.8866 134.851 15.5597C135.392 15.4471 135.698 15.5584 135.767 15.8936C135.81 16.0999 135.426 17.1615 134.614 19.0785C133.802 20.9955 133.442 22.1732 133.533 22.6115C133.619 23.024 134.048 23.1498 134.822 22.9891C135.136 22.9506 135.732 22.8402 136.609 22.658ZM126.363 52.4636C126.321 52.2573 126.436 52.0989 126.709 51.9884C128.513 51.6133 130.313 50.634 132.109 49.0504C133.931 47.4615 134.71 46.0354 134.447 44.772C134.254 43.8439 133.451 43.083 132.036 42.4894C130.617 41.87 129.808 41.0834 129.609 40.1294C129.315 38.7114 129.962 37.2992 131.553 35.8928C133.138 34.4606 135.078 33.506 137.372 33.0291C137.785 32.9433 138.058 32.9 138.193 32.8989C138.321 32.8722 138.421 32.7707 138.492 32.5946C138.584 32.3873 138.685 32.1645 138.797 31.926C138.909 31.6876 139.155 31.4482 139.536 31.2078C139.911 30.9415 140.382 30.7495 140.949 30.6316C142.264 30.3583 142.961 30.415 143.042 30.8017C143.058 30.8791 143.058 30.9462 143.043 31.0032C142.706 31.4498 142.156 32.4921 141.394 34.1298C140.631 35.7675 140.134 37.2561 139.901 38.5955C139.846 38.8489 139.638 39.0132 139.277 39.0882C138.942 39.1579 138.567 39.0342 138.151 38.7171C137.73 38.3743 137.482 38.0224 137.407 37.6614C137.327 37.2747 137.308 36.8616 137.351 36.4223C137.389 35.9572 137.4 35.686 137.384 35.6087C137.314 35.2735 137.073 35.1488 136.661 35.2345C135.862 35.4007 135.075 35.8198 134.3 36.4918C133.545 37.1327 133.262 37.9044 133.45 38.8068C133.632 39.6834 134.461 40.4389 135.938 41.0733C136.503 41.3325 137.038 41.7054 137.542 42.1923C138.073 42.6737 138.402 43.2239 138.531 43.8426C138.895 45.5958 138.077 47.4199 136.077 49.3149C134.083 51.2356 131.745 52.4747 129.064 53.032C127.542 53.3482 126.642 53.1587 126.363 52.4636Z" fill="white"/>
</svg>
